<svg width="156" height="24" viewBox="0 0 156 24" fill="none" xmlns="http://www.w3.org/2000/svg">
<path d="M1.28 23C1.10933 23 0.96 22.936 0.832 22.808C0.704 22.68 0.64 22.5307 0.64 22.36C0.64 22.2533 0.650667 22.136 0.672 22.008L8.608 1.304C8.69333 1.09067 8.81067 0.919999 8.96 0.792C9.10933 0.663999 9.33333 0.599998 9.632 0.599998H11.808C12.0853 0.599998 12.2987 0.663999 12.448 0.792C12.6187 0.919999 12.7467 1.09067 12.832 1.304L20.736 22.008C20.7787 22.136 20.8 22.2533 20.8 22.36C20.8 22.5307 20.736 22.68 20.608 22.808C20.48 22.936 20.3307 23 20.16 23H18.528C18.272 23 18.08 22.936 17.952 22.808C17.8453 22.68 17.7707 22.5627 17.728 22.456L15.968 17.912H5.472L3.712 22.456C3.69067 22.5627 3.616 22.68 3.488 22.808C3.36 22.936 3.168 23 2.912 23H1.28ZM6.4 15.16H15.04L10.72 3.8L6.4 15.16ZM25.2775 23C25.0428 23 24.8615 22.936 24.7335 22.808C24.6055 22.6587 24.5415 22.4773 24.5415 22.264V1.336C24.5415 1.12267 24.6055 0.951999 24.7335 0.823999C24.8615 0.674665 25.0428 0.599998 25.2775 0.599998H26.9735C27.1868 0.599998 27.3575 0.674665 27.4855 0.823999C27.6135 0.951999 27.6775 1.12267 27.6775 1.336V20.216H38.3335C38.5682 20.216 38.7495 20.2907 38.8775 20.44C39.0055 20.568 39.0695 20.7493 39.0695 20.984V22.264C39.0695 22.4773 39.0055 22.6587 38.8775 22.808C38.7495 22.936 38.5682 23 38.3335 23H25.2775ZM50.7083 23.32C48.8309 23.32 47.2309 22.968 45.9082 22.264C44.6069 21.56 43.6042 20.568 42.9002 19.288C42.2176 18.008 41.8336 16.504 41.7482 14.776C41.7269 13.8373 41.7162 12.8453 41.7162 11.8C41.7162 10.7333 41.7269 9.72 41.7482 8.76C41.8336 7.032 42.2176 5.53867 42.9002 4.28C43.6042 3.02133 44.6176 2.04 45.9402 1.336C47.2629 0.631999 48.8522 0.279999 50.7083 0.279999C52.2229 0.279999 53.5349 0.493332 54.6442 0.919998C55.7536 1.34667 56.6603 1.89067 57.3643 2.552C58.0896 3.192 58.6229 3.864 58.9643 4.568C59.3269 5.272 59.5189 5.89067 59.5403 6.424C59.5616 6.616 59.5083 6.776 59.3803 6.904C59.2523 7.01067 59.0816 7.064 58.8682 7.064H56.9802C56.7669 7.064 56.6069 7.02133 56.5002 6.936C56.4149 6.85067 56.3296 6.70133 56.2442 6.488C56.0522 5.93333 55.7322 5.38933 55.2843 4.856C54.8576 4.32267 54.2709 3.88533 53.5243 3.544C52.7989 3.18133 51.8602 3 50.7083 3C49.0229 3 47.6576 3.45867 46.6122 4.376C45.5882 5.29333 45.0336 6.808 44.9482 8.92C44.8842 10.8187 44.8842 12.7173 44.9482 14.616C45.0336 16.7493 45.5989 18.2853 46.6442 19.224C47.6896 20.1413 49.0549 20.6 50.7402 20.6C51.8709 20.6 52.8736 20.3973 53.7483 19.992C54.6442 19.5653 55.3483 18.9147 55.8603 18.04C56.3723 17.1653 56.6283 16.056 56.6283 14.712V13.368H51.8282C51.6149 13.368 51.4336 13.304 51.2843 13.176C51.1562 13.0267 51.0922 12.8347 51.0922 12.6V11.576C51.0922 11.3413 51.1562 11.16 51.2843 11.032C51.4336 10.8827 51.6149 10.808 51.8282 10.808H59.0603C59.2949 10.808 59.4763 10.8827 59.6042 11.032C59.7322 11.16 59.7962 11.3413 59.7962 11.576V14.648C59.7962 16.3973 59.4336 17.9227 58.7083 19.224C58.0043 20.5253 56.9696 21.5387 55.6042 22.264C54.2389 22.968 52.6069 23.32 50.7083 23.32ZM72.7135 23.32C70.9002 23.32 69.3428 23.0107 68.0415 22.392C66.7402 21.752 65.7375 20.7813 65.0335 19.48C64.3295 18.1573 63.9348 16.504 63.8495 14.52C63.8282 13.5813 63.8175 12.6853 63.8175 11.832C63.8175 10.9573 63.8282 10.0507 63.8495 9.112C63.9348 7.14933 64.3402 5.51733 65.0655 4.216C65.8122 2.89333 66.8362 1.912 68.1375 1.272C69.4602 0.610666 70.9855 0.279999 72.7135 0.279999C74.4628 0.279999 75.9882 0.610666 77.2895 1.272C78.6122 1.912 79.6468 2.89333 80.3935 4.216C81.1402 5.51733 81.5455 7.14933 81.6095 9.112C81.6522 10.0507 81.6735 10.9573 81.6735 11.832C81.6735 12.6853 81.6522 13.5813 81.6095 14.52C81.5455 16.504 81.1508 18.1573 80.4255 19.48C79.7215 20.7813 78.7188 21.752 77.4175 22.392C76.1162 23.0107 74.5482 23.32 72.7135 23.32ZM72.7135 20.6C74.3562 20.6 75.6895 20.1093 76.7135 19.128C77.7588 18.1467 78.3242 16.5573 78.4095 14.36C78.4522 13.4 78.4735 12.5467 78.4735 11.8C78.4735 11.032 78.4522 10.1787 78.4095 9.24C78.3668 7.768 78.0895 6.57333 77.5775 5.656C77.0868 4.73867 76.4255 4.06667 75.5935 3.64C74.7615 3.21333 73.8015 3 72.7135 3C71.6682 3 70.7295 3.21333 69.8975 3.64C69.0655 4.06667 68.3935 4.73867 67.8815 5.656C67.3908 6.57333 67.1135 7.768 67.0495 9.24C67.0282 10.1787 67.0175 11.032 67.0175 11.8C67.0175 12.5467 67.0282 13.4 67.0495 14.36C67.1348 16.5573 67.7002 18.1467 68.7455 19.128C69.7908 20.1093 71.1135 20.6 72.7135 20.6ZM87.3937 23C87.1591 23 86.9777 22.936 86.8497 22.808C86.7217 22.6587 86.6577 22.4773 86.6577 22.264V1.368C86.6577 1.13333 86.7217 0.951999 86.8497 0.823999C86.9777 0.674665 87.1591 0.599998 87.3937 0.599998H95.2017C97.6124 0.599998 99.5217 1.16533 100.93 2.296C102.338 3.42667 103.042 5.10133 103.042 7.32C103.042 8.96267 102.626 10.3067 101.794 11.352C100.983 12.376 99.8737 13.0907 98.4657 13.496L103.394 22.008C103.458 22.136 103.49 22.2533 103.49 22.36C103.49 22.5307 103.415 22.68 103.266 22.808C103.138 22.936 102.988 23 102.818 23H101.282C100.919 23 100.652 22.904 100.482 22.712C100.311 22.52 100.162 22.328 100.034 22.136L95.3937 14.008H89.7937V22.264C89.7937 22.4773 89.7191 22.6587 89.5697 22.808C89.4417 22.936 89.2604 23 89.0257 23H87.3937ZM89.7937 11.288H95.0737C96.6737 11.288 97.8684 10.9573 98.6577 10.296C99.4471 9.61333 99.8417 8.61067 99.8417 7.288C99.8417 5.98667 99.4471 4.99467 98.6577 4.312C97.8897 3.62933 96.6951 3.288 95.0737 3.288H89.7937V11.288ZM108.682 23C108.448 23 108.266 22.936 108.138 22.808C108.01 22.6587 107.946 22.4773 107.946 22.264V1.336C107.946 1.12267 108.01 0.951999 108.138 0.823999C108.266 0.674665 108.448 0.599998 108.682 0.599998H110.378C110.592 0.599998 110.762 0.674665 110.89 0.823999C111.04 0.951999 111.114 1.12267 111.114 1.336V22.264C111.114 22.4773 111.04 22.6587 110.89 22.808C110.762 22.936 110.592 23 110.378 23H108.682ZM122.648 23C122.435 23 122.254 22.936 122.104 22.808C121.976 22.6587 121.912 22.4773 121.912 22.264V3.448H115.768C115.555 3.448 115.374 3.384 115.224 3.256C115.096 3.10667 115.032 2.92533 115.032 2.712V1.368C115.032 1.13333 115.096 0.951999 115.224 0.823999C115.374 0.674665 115.555 0.599998 115.768 0.599998H131.192C131.427 0.599998 131.608 0.674665 131.736 0.823999C131.886 0.951999 131.96 1.13333 131.96 1.368V2.712C131.96 2.92533 131.886 3.10667 131.736 3.256C131.608 3.384 131.427 3.448 131.192 3.448H125.08V22.264C125.08 22.4773 125.006 22.6587 124.856 22.808C124.728 22.936 124.547 23 124.312 23H122.648ZM136.604 23C136.39 23 136.209 22.936 136.06 22.808C135.932 22.6587 135.868 22.4773 135.868 22.264V1.368C135.868 1.13333 135.932 0.951999 136.06 0.823999C136.209 0.674665 136.39 0.599998 136.604 0.599998H138.204C138.46 0.599998 138.652 0.663999 138.78 0.792C138.908 0.919999 138.982 1.02667 139.004 1.112L145.788 14.04L152.604 1.112C152.646 1.02667 152.721 0.919999 152.828 0.792C152.956 0.663999 153.148 0.599998 153.404 0.599998H154.972C155.206 0.599998 155.388 0.674665 155.516 0.823999C155.665 0.951999 155.74 1.13333 155.74 1.368V22.264C155.74 22.4773 155.665 22.6587 155.516 22.808C155.388 22.936 155.206 23 154.972 23H153.404C153.19 23 153.009 22.936 152.86 22.808C152.732 22.6587 152.668 22.4773 152.668 22.264V6.52L147.324 16.952C147.238 17.1653 147.11 17.336 146.94 17.464C146.769 17.5707 146.556 17.624 146.3 17.624H145.308C145.03 17.624 144.806 17.5707 144.636 17.464C144.486 17.336 144.358 17.1653 144.252 16.952L138.908 6.52V22.264C138.908 22.4773 138.833 22.6587 138.684 22.808C138.556 22.936 138.385 23 138.172 23H136.604Z" fill="#FFFF00"/>
</svg>
