<svg width="48" height="45" viewBox="0 0 48 45" fill="none" xmlns="http://www.w3.org/2000/svg">
<path d="M27.45 41.3C28.0333 42.323 28.4872 42.5537 29.75 42.4L27.5 44.6L27.45 41.3Z" fill="#FFFF00"/>
<path d="M28.1 37.3L35.15 22L36.25 24L29.7 38.2C28.75 38.6 28.25 38.25 28.1 37.3Z" fill="#FFFF00"/>
<path d="M30.7 38.2L36.8 25L37.9372 27.0276L32.3 39.1C31.35 39.5 30.85 39.15 30.7 38.2Z" fill="#FFFF00"/>
<path d="M30.6872 38.2276L36.8 25L37.9372 27.0276L32.2872 39.1276C31.3372 39.5276 30.8372 39.1776 30.6872 38.2276Z" fill="#FFFF00"/>
<path d="M8.1 29.35L22.9 0L34.45 20.75L27.05 37.45L27.35 45H47.95L38.55 28.1L33.15 39.75L27.35 45H18.25H0L3.8 37.7H17.95L26 20.5L23 15.4L15.25 29.35H8.1Z" fill="#FFFF00"/>
</svg>
