<svg width="256" height="241" viewBox="0 0 256 241" fill="none" xmlns="http://www.w3.org/2000/svg">
<path d="M122.268 0.105835L256 240.256H0L122.268 0.105835Z" fill="black" fill-opacity="0.501961"/>
<path d="M146.552 220.496C149.666 225.958 152.09 227.19 158.832 226.369L146.819 238.115L146.552 220.496Z" fill="#FFFF00"/>
<path d="M150.023 199.141L187.663 117.456L193.535 128.133L158.566 203.946C153.494 206.081 150.824 204.213 150.023 199.141Z" fill="#FFFF00"/>
<path d="M163.905 203.946L196.472 133.472L202.543 144.297L172.447 208.751C167.375 210.886 164.705 209.018 163.905 203.946Z" fill="#FFFF00"/>
<path d="M163.836 204.093L196.472 133.472L202.543 144.297L172.378 208.898C167.306 211.034 164.637 209.165 163.836 204.093Z" fill="#FFFF00"/>
<path d="M42.6251 156.528L122.261 0L183.925 110.782L144.417 199.942L146.019 240.25H256L205.814 150.023L176.984 212.221L146.019 240.25H97.4348H0L20.2878 201.276H95.8332L138.811 109.447L122.795 82.219L81.4181 156.697L42.6251 156.528Z" fill="#FFFF00"/>
</svg>
