<svg width="285" height="247" viewBox="0 0 285 247" fill="none" xmlns="http://www.w3.org/2000/svg">
<path d="M143.268 0.106201L285 246H1L143.268 0.106201Z" fill="black" fill-opacity="0.501961"/>
<path d="M171.024 199.141L209.911 115.884L215.731 125.842L179.566 203.946C174.494 206.082 171.825 204.213 171.024 199.141Z" fill="#FFFF00"/>
<path d="M184.905 203.946L219 131.5L224.59 141.136L193.447 208.751C188.375 210.887 185.706 209.018 184.905 203.946Z" fill="#FFFF00"/>
<path d="M184.836 204.093L219 131.5L224.59 141.136L193.378 208.898C188.306 211.034 185.637 209.165 184.836 204.093Z" fill="#FFFF00"/>
<path d="M51 160L142.997 0.00390625L206.296 109.695L165.418 199.942L163 245.947L285 246L228.061 147.391L197.985 212.221L163 245.947H118.885L0.990967 246.021L30.1133 195.57L112 196L159.812 109.448L143.795 82.2194L100.5 160H51Z" fill="#FFFF00"/>
</svg>
