<svg width="318" height="45" viewBox="0 0 318 45" fill="none" xmlns="http://www.w3.org/2000/svg">
<path d="M229.416 37C229.203 37 229.021 36.936 228.872 36.808C228.744 36.6587 228.68 36.4773 228.68 36.264V17.448H222.536C222.323 17.448 222.141 17.384 221.992 17.256C221.864 17.1067 221.8 16.9253 221.8 16.712V15.368C221.8 15.1333 221.864 14.952 221.992 14.824C222.141 14.6747 222.323 14.6 222.536 14.6H237.96C238.195 14.6 238.376 14.6747 238.504 14.824C238.653 14.952 238.728 15.1333 238.728 15.368V16.712C238.728 16.9253 238.653 17.1067 238.504 17.256C238.376 17.384 238.195 17.448 237.96 17.448H231.848V36.264C231.848 36.4773 231.773 36.6587 231.624 36.808C231.496 36.936 231.315 37 231.08 37H229.416ZM238.756 37C238.586 37 238.436 36.936 238.308 36.808C238.18 36.68 238.116 36.5307 238.116 36.36C238.116 36.2533 238.127 36.136 238.148 36.008L246.084 15.304C246.17 15.0907 246.287 14.92 246.436 14.792C246.586 14.664 246.81 14.6 247.108 14.6H249.284C249.562 14.6 249.775 14.664 249.924 14.792C250.095 14.92 250.223 15.0907 250.308 15.304L258.212 36.008C258.255 36.136 258.276 36.2533 258.276 36.36C258.276 36.5307 258.212 36.68 258.084 36.808C257.956 36.936 257.807 37 257.636 37H256.004C255.748 37 255.556 36.936 255.428 36.808C255.322 36.68 255.247 36.5627 255.204 36.456L253.444 31.912H242.948L241.188 36.456C241.167 36.5627 241.092 36.68 240.964 36.808C240.836 36.936 240.644 37 240.388 37H238.756ZM243.876 29.16H252.516L248.196 17.8L243.876 29.16ZM259.413 20.456C259.243 20.456 259.104 20.392 258.997 20.264C258.912 20.136 258.88 19.976 258.901 19.784L259.637 15.208C259.68 14.952 259.765 14.7387 259.893 14.568C260.043 14.376 260.256 14.28 260.533 14.28H262.677C262.827 14.28 262.944 14.344 263.029 14.472C263.136 14.5787 263.189 14.696 263.189 14.824C263.189 14.9947 263.147 15.1653 263.061 15.336L261.397 19.72C261.312 19.9333 261.195 20.1147 261.045 20.264C260.917 20.392 260.715 20.456 260.437 20.456H259.413ZM268.199 37C267.964 37 267.783 36.936 267.655 36.808C267.527 36.6587 267.463 36.4773 267.463 36.264V15.336C267.463 15.1227 267.527 14.952 267.655 14.824C267.783 14.6747 267.964 14.6 268.199 14.6H269.895C270.108 14.6 270.279 14.6747 270.407 14.824C270.535 14.952 270.599 15.1227 270.599 15.336V34.216H281.255C281.489 34.216 281.671 34.2907 281.799 34.44C281.927 34.568 281.991 34.7493 281.991 34.984V36.264C281.991 36.4773 281.927 36.6587 281.799 36.808C281.671 36.936 281.489 37 281.255 37H268.199ZM286.55 37C286.315 37 286.134 36.936 286.006 36.808C285.878 36.6587 285.814 36.4773 285.814 36.264V15.336C285.814 15.1227 285.878 14.952 286.006 14.824C286.134 14.6747 286.315 14.6 286.55 14.6H288.246C288.459 14.6 288.63 14.6747 288.758 14.824C288.907 14.952 288.982 15.1227 288.982 15.336V36.264C288.982 36.4773 288.907 36.6587 288.758 36.808C288.63 36.936 288.459 37 288.246 37H286.55ZM295.62 37C295.407 37 295.225 36.936 295.076 36.808C294.948 36.6587 294.884 36.4773 294.884 36.264V15.368C294.884 15.1333 294.948 14.952 295.076 14.824C295.225 14.6747 295.407 14.6 295.62 14.6H297.22C297.476 14.6 297.668 14.664 297.796 14.792C297.924 14.92 297.999 15.0267 298.02 15.112L304.804 28.04L311.62 15.112C311.663 15.0267 311.737 14.92 311.844 14.792C311.972 14.664 312.164 14.6 312.42 14.6H313.988C314.223 14.6 314.404 14.6747 314.532 14.824C314.681 14.952 314.756 15.1333 314.756 15.368V36.264C314.756 36.4773 314.681 36.6587 314.532 36.808C314.404 36.936 314.223 37 313.988 37H312.42C312.207 37 312.025 36.936 311.876 36.808C311.748 36.6587 311.684 36.4773 311.684 36.264V20.52L306.34 30.952C306.255 31.1653 306.127 31.336 305.956 31.464C305.785 31.5707 305.572 31.624 305.316 31.624H304.324C304.047 31.624 303.823 31.5707 303.652 31.464C303.503 31.336 303.375 31.1653 303.268 30.952L297.924 20.52V36.264C297.924 36.4773 297.849 36.6587 297.7 36.808C297.572 36.936 297.401 37 297.188 37H295.62Z" fill="#FFFF00"/>
<path d="M193.45 41.3C194.033 42.323 194.487 42.5537 195.75 42.4L193.5 44.6L193.45 41.3Z" fill="#FFFF00"/>
<path d="M194.1 37.3L201.15 22L202.25 24L195.7 38.2C194.75 38.6 194.25 38.25 194.1 37.3Z" fill="#FFFF00"/>
<path d="M196.7 38.2L202.8 25L203.937 27.0276L198.3 39.1C197.35 39.5 196.85 39.15 196.7 38.2Z" fill="#FFFF00"/>
<path d="M196.687 38.2276L202.8 25L203.937 27.0276L198.287 39.1276C197.337 39.5276 196.837 39.1776 196.687 38.2276Z" fill="#FFFF00"/>
<path d="M174.1 29.35L188.9 0L200.45 20.75L193.05 37.45L193.35 45H213.95L204.55 28.1L199.15 39.75L193.35 45H184.25H166L169.8 37.7H183.95L192 20.5L189 15.4L181.25 29.35H174.1Z" fill="#FFFF00"/>
<path d="M1.28 37C1.10933 37 0.96 36.936 0.832 36.808C0.704 36.68 0.64 36.5307 0.64 36.36C0.64 36.2533 0.650667 36.136 0.672 36.008L8.608 15.304C8.69333 15.0907 8.81067 14.92 8.96 14.792C9.10933 14.664 9.33333 14.6 9.632 14.6H11.808C12.0853 14.6 12.2987 14.664 12.448 14.792C12.6187 14.92 12.7467 15.0907 12.832 15.304L20.736 36.008C20.7787 36.136 20.8 36.2533 20.8 36.36C20.8 36.5307 20.736 36.68 20.608 36.808C20.48 36.936 20.3307 37 20.16 37H18.528C18.272 37 18.08 36.936 17.952 36.808C17.8453 36.68 17.7707 36.5627 17.728 36.456L15.968 31.912H5.472L3.712 36.456C3.69067 36.5627 3.616 36.68 3.488 36.808C3.36 36.936 3.168 37 2.912 37H1.28ZM6.4 29.16H15.04L10.72 17.8L6.4 29.16ZM25.2775 37C25.0428 37 24.8615 36.936 24.7335 36.808C24.6055 36.6587 24.5415 36.4773 24.5415 36.264V15.336C24.5415 15.1227 24.6055 14.952 24.7335 14.824C24.8615 14.6747 25.0428 14.6 25.2775 14.6H26.9735C27.1868 14.6 27.3575 14.6747 27.4855 14.824C27.6135 14.952 27.6775 15.1227 27.6775 15.336V34.216H38.3335C38.5682 34.216 38.7495 34.2907 38.8775 34.44C39.0055 34.568 39.0695 34.7493 39.0695 34.984V36.264C39.0695 36.4773 39.0055 36.6587 38.8775 36.808C38.7495 36.936 38.5682 37 38.3335 37H25.2775ZM50.7083 37.32C48.8309 37.32 47.2309 36.968 45.9082 36.264C44.6069 35.56 43.6042 34.568 42.9002 33.288C42.2176 32.008 41.8336 30.504 41.7482 28.776C41.7269 27.8373 41.7162 26.8453 41.7162 25.8C41.7162 24.7333 41.7269 23.72 41.7482 22.76C41.8336 21.032 42.2176 19.5387 42.9002 18.28C43.6042 17.0213 44.6176 16.04 45.9402 15.336C47.2629 14.632 48.8522 14.28 50.7083 14.28C52.2229 14.28 53.5349 14.4933 54.6442 14.92C55.7536 15.3467 56.6603 15.8907 57.3643 16.552C58.0896 17.192 58.6229 17.864 58.9643 18.568C59.3269 19.272 59.5189 19.8907 59.5403 20.424C59.5616 20.616 59.5083 20.776 59.3803 20.904C59.2523 21.0107 59.0816 21.064 58.8682 21.064H56.9802C56.7669 21.064 56.6069 21.0213 56.5002 20.936C56.4149 20.8507 56.3296 20.7013 56.2442 20.488C56.0522 19.9333 55.7322 19.3893 55.2843 18.856C54.8576 18.3227 54.2709 17.8853 53.5243 17.544C52.7989 17.1813 51.8602 17 50.7083 17C49.0229 17 47.6576 17.4587 46.6122 18.376C45.5882 19.2933 45.0336 20.808 44.9482 22.92C44.8842 24.8187 44.8842 26.7173 44.9482 28.616C45.0336 30.7493 45.5989 32.2853 46.6442 33.224C47.6896 34.1413 49.0549 34.6 50.7402 34.6C51.8709 34.6 52.8736 34.3973 53.7483 33.992C54.6442 33.5653 55.3483 32.9147 55.8603 32.04C56.3723 31.1653 56.6283 30.056 56.6283 28.712V27.368H51.8282C51.6149 27.368 51.4336 27.304 51.2843 27.176C51.1562 27.0267 51.0922 26.8347 51.0922 26.6V25.576C51.0922 25.3413 51.1562 25.16 51.2843 25.032C51.4336 24.8827 51.6149 24.808 51.8282 24.808H59.0603C59.2949 24.808 59.4763 24.8827 59.6042 25.032C59.7322 25.16 59.7962 25.3413 59.7962 25.576V28.648C59.7962 30.3973 59.4336 31.9227 58.7083 33.224C58.0043 34.5253 56.9696 35.5387 55.6042 36.264C54.2389 36.968 52.6069 37.32 50.7083 37.32ZM72.7135 37.32C70.9002 37.32 69.3428 37.0107 68.0415 36.392C66.7402 35.752 65.7375 34.7813 65.0335 33.48C64.3295 32.1573 63.9348 30.504 63.8495 28.52C63.8282 27.5813 63.8175 26.6853 63.8175 25.832C63.8175 24.9573 63.8282 24.0507 63.8495 23.112C63.9348 21.1493 64.3402 19.5173 65.0655 18.216C65.8122 16.8933 66.8362 15.912 68.1375 15.272C69.4602 14.6107 70.9855 14.28 72.7135 14.28C74.4628 14.28 75.9882 14.6107 77.2895 15.272C78.6122 15.912 79.6468 16.8933 80.3935 18.216C81.1402 19.5173 81.5455 21.1493 81.6095 23.112C81.6522 24.0507 81.6735 24.9573 81.6735 25.832C81.6735 26.6853 81.6522 27.5813 81.6095 28.52C81.5455 30.504 81.1508 32.1573 80.4255 33.48C79.7215 34.7813 78.7188 35.752 77.4175 36.392C76.1162 37.0107 74.5482 37.32 72.7135 37.32ZM72.7135 34.6C74.3562 34.6 75.6895 34.1093 76.7135 33.128C77.7588 32.1467 78.3242 30.5573 78.4095 28.36C78.4522 27.4 78.4735 26.5467 78.4735 25.8C78.4735 25.032 78.4522 24.1787 78.4095 23.24C78.3668 21.768 78.0895 20.5733 77.5775 19.656C77.0868 18.7387 76.4255 18.0667 75.5935 17.64C74.7615 17.2133 73.8015 17 72.7135 17C71.6682 17 70.7295 17.2133 69.8975 17.64C69.0655 18.0667 68.3935 18.7387 67.8815 19.656C67.3908 20.5733 67.1135 21.768 67.0495 23.24C67.0282 24.1787 67.0175 25.032 67.0175 25.8C67.0175 26.5467 67.0282 27.4 67.0495 28.36C67.1348 30.5573 67.7002 32.1467 68.7455 33.128C69.7908 34.1093 71.1135 34.6 72.7135 34.6ZM87.3937 37C87.1591 37 86.9777 36.936 86.8497 36.808C86.7217 36.6587 86.6577 36.4773 86.6577 36.264V15.368C86.6577 15.1333 86.7217 14.952 86.8497 14.824C86.9777 14.6747 87.1591 14.6 87.3937 14.6H95.2017C97.6124 14.6 99.5217 15.1653 100.93 16.296C102.338 17.4267 103.042 19.1013 103.042 21.32C103.042 22.9627 102.626 24.3067 101.794 25.352C100.983 26.376 99.8737 27.0907 98.4657 27.496L103.394 36.008C103.458 36.136 103.49 36.2533 103.49 36.36C103.49 36.5307 103.415 36.68 103.266 36.808C103.138 36.936 102.988 37 102.818 37H101.282C100.919 37 100.652 36.904 100.482 36.712C100.311 36.52 100.162 36.328 100.034 36.136L95.3937 28.008H89.7937V36.264C89.7937 36.4773 89.7191 36.6587 89.5697 36.808C89.4417 36.936 89.2604 37 89.0257 37H87.3937ZM89.7937 25.288H95.0737C96.6737 25.288 97.8684 24.9573 98.6577 24.296C99.4471 23.6133 99.8417 22.6107 99.8417 21.288C99.8417 19.9867 99.4471 18.9947 98.6577 18.312C97.8897 17.6293 96.6951 17.288 95.0737 17.288H89.7937V25.288ZM108.682 37C108.448 37 108.266 36.936 108.138 36.808C108.01 36.6587 107.946 36.4773 107.946 36.264V15.336C107.946 15.1227 108.01 14.952 108.138 14.824C108.266 14.6747 108.448 14.6 108.682 14.6H110.378C110.592 14.6 110.762 14.6747 110.89 14.824C111.04 14.952 111.114 15.1227 111.114 15.336V36.264C111.114 36.4773 111.04 36.6587 110.89 36.808C110.762 36.936 110.592 37 110.378 37H108.682ZM122.648 37C122.435 37 122.254 36.936 122.104 36.808C121.976 36.6587 121.912 36.4773 121.912 36.264V17.448H115.768C115.555 17.448 115.374 17.384 115.224 17.256C115.096 17.1067 115.032 16.9253 115.032 16.712V15.368C115.032 15.1333 115.096 14.952 115.224 14.824C115.374 14.6747 115.555 14.6 115.768 14.6H131.192C131.427 14.6 131.608 14.6747 131.736 14.824C131.886 14.952 131.96 15.1333 131.96 15.368V16.712C131.96 16.9253 131.886 17.1067 131.736 17.256C131.608 17.384 131.427 17.448 131.192 17.448H125.08V36.264C125.08 36.4773 125.006 36.6587 124.856 36.808C124.728 36.936 124.547 37 124.312 37H122.648ZM136.604 37C136.39 37 136.209 36.936 136.06 36.808C135.932 36.6587 135.868 36.4773 135.868 36.264V15.368C135.868 15.1333 135.932 14.952 136.06 14.824C136.209 14.6747 136.39 14.6 136.604 14.6H138.204C138.46 14.6 138.652 14.664 138.78 14.792C138.908 14.92 138.982 15.0267 139.004 15.112L145.788 28.04L152.604 15.112C152.646 15.0267 152.721 14.92 152.828 14.792C152.956 14.664 153.148 14.6 153.404 14.6H154.972C155.206 14.6 155.388 14.6747 155.516 14.824C155.665 14.952 155.74 15.1333 155.74 15.368V36.264C155.74 36.4773 155.665 36.6587 155.516 36.808C155.388 36.936 155.206 37 154.972 37H153.404C153.19 37 153.009 36.936 152.86 36.808C152.732 36.6587 152.668 36.4773 152.668 36.264V20.52L147.324 30.952C147.238 31.1653 147.11 31.336 146.94 31.464C146.769 31.5707 146.556 31.624 146.3 31.624H145.308C145.03 31.624 144.806 31.5707 144.636 31.464C144.486 31.336 144.358 31.1653 144.252 30.952L138.908 20.52V36.264C138.908 36.4773 138.833 36.6587 138.684 36.808C138.556 36.936 138.385 37 138.172 37H136.604Z" fill="#FFFF00"/>
</svg>
