<svg width="94" height="23" viewBox="0 0 94 23" fill="none" xmlns="http://www.w3.org/2000/svg">
<path d="M8.416 23C8.20267 23 8.02133 22.936 7.872 22.808C7.744 22.6587 7.68 22.4773 7.68 22.264V3.448H1.536C1.32267 3.448 1.14133 3.384 0.992 3.256C0.864 3.10667 0.8 2.92533 0.8 2.712V1.368C0.8 1.13333 0.864 0.951999 0.992 0.823999C1.14133 0.674665 1.32267 0.599998 1.536 0.599998H16.96C17.1947 0.599998 17.376 0.674665 17.504 0.823999C17.6533 0.951999 17.728 1.13333 17.728 1.368V2.712C17.728 2.92533 17.6533 3.10667 17.504 3.256C17.376 3.384 17.1947 3.448 16.96 3.448H10.848V22.264C10.848 22.4773 10.7733 22.6587 10.624 22.808C10.496 22.936 10.3147 23 10.08 23H8.416ZM17.7562 23C17.5856 23 17.4362 22.936 17.3082 22.808C17.1802 22.68 17.1162 22.5307 17.1162 22.36C17.1162 22.2533 17.1269 22.136 17.1482 22.008L25.0843 1.304C25.1696 1.09067 25.2869 0.919999 25.4362 0.792C25.5856 0.663999 25.8096 0.599998 26.1083 0.599998H28.2843C28.5616 0.599998 28.7749 0.663999 28.9243 0.792C29.0949 0.919999 29.2229 1.09067 29.3083 1.304L37.2122 22.008C37.2549 22.136 37.2763 22.2533 37.2763 22.36C37.2763 22.5307 37.2123 22.68 37.0843 22.808C36.9563 22.936 36.8069 23 36.6363 23H35.0043C34.7483 23 34.5563 22.936 34.4283 22.808C34.3216 22.68 34.2469 22.5627 34.2043 22.456L32.4443 17.912H21.9482L20.1882 22.456C20.1669 22.5627 20.0922 22.68 19.9642 22.808C19.8362 22.936 19.6442 23 19.3882 23H17.7562ZM22.8762 15.16H31.5163L27.1962 3.8L22.8762 15.16ZM38.4135 6.456C38.2428 6.456 38.1042 6.392 37.9975 6.264C37.9122 6.136 37.8802 5.976 37.9015 5.784L38.6375 1.208C38.6802 0.951999 38.7655 0.738666 38.8935 0.567999C39.0428 0.375999 39.2562 0.279999 39.5335 0.279999H41.6775C41.8268 0.279999 41.9442 0.343999 42.0295 0.471998C42.1362 0.578665 42.1895 0.695999 42.1895 0.823999C42.1895 0.994665 42.1468 1.16533 42.0615 1.336L40.3975 5.72C40.3122 5.93333 40.1948 6.11467 40.0455 6.264C39.9175 6.392 39.7148 6.456 39.4375 6.456H38.4135ZM47.1987 23C46.9641 23 46.7827 22.936 46.6547 22.808C46.5267 22.6587 46.4627 22.4773 46.4627 22.264V1.336C46.4627 1.12267 46.5267 0.951999 46.6547 0.823999C46.7827 0.674665 46.9641 0.599998 47.1987 0.599998H48.8947C49.1081 0.599998 49.2787 0.674665 49.4067 0.823999C49.5347 0.951999 49.5987 1.12267 49.5987 1.336V20.216H60.2547C60.4894 20.216 60.6708 20.2907 60.7987 20.44C60.9267 20.568 60.9907 20.7493 60.9907 20.984V22.264C60.9907 22.4773 60.9267 22.6587 60.7987 22.808C60.6708 22.936 60.4894 23 60.2547 23H47.1987ZM65.55 23C65.3153 23 65.134 22.936 65.006 22.808C64.878 22.6587 64.814 22.4773 64.814 22.264V1.336C64.814 1.12267 64.878 0.951999 65.006 0.823999C65.134 0.674665 65.3153 0.599998 65.55 0.599998H67.246C67.4593 0.599998 67.63 0.674665 67.758 0.823999C67.9073 0.951999 67.982 1.12267 67.982 1.336V22.264C67.982 22.4773 67.9073 22.6587 67.758 22.808C67.63 22.936 67.4593 23 67.246 23H65.55ZM74.62 23C74.4067 23 74.2253 22.936 74.076 22.808C73.948 22.6587 73.884 22.4773 73.884 22.264V1.368C73.884 1.13333 73.948 0.951999 74.076 0.823999C74.2253 0.674665 74.4067 0.599998 74.62 0.599998H76.22C76.476 0.599998 76.668 0.663999 76.796 0.792C76.924 0.919999 76.9987 1.02667 77.02 1.112L83.804 14.04L90.62 1.112C90.6627 1.02667 90.7373 0.919999 90.844 0.792C90.972 0.663999 91.164 0.599998 91.42 0.599998H92.988C93.2227 0.599998 93.404 0.674665 93.532 0.823999C93.6813 0.951999 93.756 1.13333 93.756 1.368V22.264C93.756 22.4773 93.6813 22.6587 93.532 22.808C93.404 22.936 93.2227 23 92.988 23H91.42C91.2067 23 91.0253 22.936 90.876 22.808C90.748 22.6587 90.684 22.4773 90.684 22.264V6.52L85.34 16.952C85.2547 17.1653 85.1267 17.336 84.956 17.464C84.7853 17.5707 84.572 17.624 84.316 17.624H83.324C83.0467 17.624 82.8227 17.5707 82.652 17.464C82.5027 17.336 82.3747 17.1653 82.268 16.952L76.924 6.52V22.264C76.924 22.4773 76.8493 22.6587 76.7 22.808C76.572 22.936 76.4013 23 76.188 23H74.62Z" fill="#FFFF00"/>
</svg>
